<svg width="94" height="100" viewBox="0 0 94 100" fill="none" xmlns="http://www.w3.org/2000/svg">
<path d="M93.812 99.8067H0L2.33335 86.2622C4.606 73.0921 16.0783 63.463 29.5056 63.463H64.3066C77.7339 63.463 89.2062 73.0921 91.4788 86.2622L93.812 99.8067Z" fill="#4CDBC4"/>
<path d="M59.7652 57.4975V63.5357C59.7652 63.5357 56.7049 70.1166 49.2497 71.8383H49.2059C48.2054 72.0815 47.1024 72.2353 45.9388 72.2583C36.0897 72.0587 32.1333 63.5357 32.1333 63.5357V57.5661C33.9046 58.9344 35.9037 60.0488 38.07 60.7328C38.3792 60.8429 38.6945 60.9303 39.0037 61.0197C40.6497 61.5041 42.3564 61.7474 44.1487 61.7474H47.731C52.2264 61.7476 56.3708 60.103 59.7652 57.4975Z" fill="#F8B64C"/>
<g opacity="0.1">
<path d="M59.7652 57.4975V63.5357C59.7652 63.5357 56.7049 70.1166 49.2497 71.8383H49.2059L39.0016 61.0197C40.6476 61.5041 42.3542 61.7474 44.1465 61.7474H47.7289C52.2264 61.7476 56.3708 60.103 59.7652 57.4975Z" fill="#40596B"/>
</g>
<path d="M45.9388 72.2418H46.0688V72.3718H45.9388V72.2418Z" fill="#FFD15C"/>
<path d="M62.3784 49.9041C62.3784 49.9041 73.9864 62.6334 71.0891 70.5638C68.1897 78.4942 67.8053 88.2605 70.2703 90.4229C70.2703 90.4229 69.8024 93.0677 65.6997 88.7408C65.6997 88.7408 53.2124 76.9991 55.8673 62.5794C55.8673 62.5794 59.7047 59.0445 62.3784 49.9041Z" fill="#40596B"/>
<path d="M66.882 36.9876C66.882 36.9876 69.9881 25.8197 51.044 17.5796C51.044 17.5796 41.8486 31.494 30.0778 32.411C30.0778 32.411 32.0998 31.311 32.6493 30.3962C32.6493 30.3962 29.8898 32.5336 25.1043 27.7722C25.1043 27.7722 24.9811 30.5938 24.9454 34.1472C24.9057 38.1977 25.5574 42.2355 26.8756 46.0677L28.7891 51.634C28.7891 51.634 14.4425 42.1151 20.5108 17.5796C20.5108 17.5796 24.7408 -3.65804 52.7005 0.552488C52.7005 0.552488 70.5417 3.66516 70.172 27.4665C70.172 27.4667 70.264 33.4507 66.882 36.9876Z" fill="#40596B"/>
<path d="M28.4193 37.7195C29.234 41.1962 28.8038 44.2693 27.4564 44.5811C26.1112 44.893 24.3628 42.3271 23.5439 38.8507C22.7314 35.3741 23.1594 32.3032 24.5068 31.9891C25.8522 31.6751 27.6047 34.241 28.4193 37.7195Z" fill="#F8B64C"/>
<path d="M82.5195 79.7437L81.0991 99.8086H12.7088L11.2884 79.7437C11.1214 78.517 12.1031 77.4149 13.3564 77.4149H80.4495C81.7048 77.4149 82.6865 78.517 82.5195 79.7437Z" fill="#F2F2F2"/>
<path d="M49.6361 92.0759C48.155 92.0759 46.9561 93.3047 46.9561 94.8059C48.4204 94.8059 49.6195 93.5895 49.6361 92.0759Z" fill="#ACB3BA"/>
<path d="M50.0372 98.7067C50.0372 99.1018 50.0998 99.4761 50.2669 99.8086H42.1807C41.9322 97.355 43.0371 95.2135 44.7103 95.0887C45.1051 95.0472 45.504 95.1096 45.8593 95.2967C46.6322 95.671 47.4698 95.671 48.2196 95.2967C48.5956 95.1096 48.9926 95.0472 49.3915 95.0887C50.1623 95.1303 50.8307 95.671 51.2925 96.4611C50.5595 96.9392 50.0581 97.771 50.0372 98.7067Z" fill="#ACB3BA"/>
<path d="M63.4333 37.7195C62.6165 41.1962 63.047 44.2693 64.3921 44.5811C65.7395 44.893 67.2519 42.2648 68.3047 38.8507C68.9335 36.8151 68.6431 32.6503 67.3459 31.9891C66.1133 31.3632 64.248 34.241 63.4333 37.7195Z" fill="#F8B64C"/>
<path d="M51.042 17.5817C51.042 17.5817 41.8466 31.4962 30.0759 32.4112C30.0759 32.4112 32.0959 31.3133 32.6493 30.3985C32.6493 30.3985 29.892 32.5297 25.1146 27.787C25.1105 27.841 25.1062 27.8971 25.0958 27.9492C25.0686 28.5979 24.9727 31.0971 24.9433 34.1496C24.9266 35.9252 25.0665 37.6926 25.3109 39.4476C25.4278 40.165 25.5386 40.8823 25.689 41.5997C25.689 41.6018 25.689 41.6018 25.6912 41.6038C25.8645 42.4459 26.0756 43.2839 26.2949 44.1176C26.4788 44.7685 26.6521 45.4275 26.8736 46.0679L28.1166 49.6837C31.8891 59.2753 38.4482 67.0457 45.9264 67.0457C57.1855 67.0457 66.3662 49.4613 67.0473 34.5258C66.834 30.7747 64.5153 23.4371 51.042 17.5817Z" fill="#FFD15C"/>
<path d="M69.9652 34.9209V41.7139C68.5656 51.3617 60.2101 58.8055 50.1416 58.8055H47.4698V56.2065H50.1416C58.7708 56.2065 65.9545 49.9271 67.3144 41.7139H66.1028C66.1028 41.7139 66.8569 38.254 67.0281 34.9209H69.9652Z" fill="#334A5E"/>
<path d="M49.0282 60.7184H44.7857C42.9997 60.7184 41.5458 59.2753 41.5458 57.4975C41.5458 55.7176 42.9976 54.2747 44.7857 54.2747H49.0282C50.8164 54.2747 52.266 55.7178 52.266 57.4975C52.264 59.2753 50.8164 60.7184 49.0282 60.7184Z" fill="#FF7058"/>
</svg>
