<svg width="102" height="102" viewBox="0 0 102 102" fill="none" xmlns="http://www.w3.org/2000/svg">
<path d="M30.1994 58.3785V50.7139C30.1994 48.8628 28.6937 47.3571 26.8428 47.3571H26.6718C25.6977 47.3571 24.8195 47.7739 24.2055 48.4384C23.737 47.1487 22.4992 46.2247 21.0493 46.2247H20.8784C19.9576 46.2247 19.1029 46.5929 18.483 47.2254C17.9771 46.0114 16.7782 45.1561 15.3829 45.1561H15.212C14.3723 45.1561 13.5812 45.4681 12.9766 46.0094C12.5945 44.5758 11.2846 43.5161 9.73228 43.5161H9.56135C7.71041 43.5161 6.20471 45.0222 6.20471 46.8732V52.4242L5.45027 52.3063C3.75492 52.0411 2.46398 52.2854 1.57547 53.0302C-0.16232 54.4841 -0.125863 57.3369 0.128141 61.5227C0.43434 66.5765 5.4943 70.8462 6.63303 71.7456V77.2628H26.7049V70.1419C30.057 67.0981 30.4626 61.1568 30.1994 58.3785Z" fill="#FBCB99"/>
<path d="M8.39373 77.263V71.0645C6.42166 69.4582 2.35003 65.7679 2.09284 61.5231C1.83903 57.3369 1.58423 54.4845 3.32202 53.0306C3.72105 52.6961 5.07912 52.4682 5.64072 52.3364L5.45027 52.3065C3.75492 52.0413 2.46398 52.2856 1.57547 53.0304C-0.16232 54.4843 -0.125863 57.3371 0.128141 61.5229C0.43434 66.5767 5.4943 70.8464 6.63303 71.7458V77.263H8.39373Z" fill="#E9B585"/>
<path d="M9.60059 43.5179L9.43564 43.5241C8.55011 43.556 7.70084 43.9423 7.09621 44.5905C6.49178 45.2394 6.17303 46.0825 6.19734 46.9841L6.2071 54.7963L6.20969 55.2788L6.25611 56.4116C6.25611 56.4116 6.11626 57.4123 7.08008 57.487C8.0437 57.5617 8.00206 56.5166 8.00206 56.5166L7.94867 54.4262L7.93931 46.7315C7.915 45.8299 8.23395 44.9868 8.83818 44.3381C9.16709 43.9853 9.56991 43.7136 10.01 43.5309C9.87472 43.5197 9.73865 43.5132 9.60059 43.5179Z" fill="#E9B585"/>
<path d="M13.7019 57.7531C14.6657 57.8278 14.6241 56.7827 14.6241 56.7827L14.5703 54.6923L14.5609 46.9977C14.5432 46.3403 14.7099 45.7153 15.0347 45.1731C14.2804 45.2233 13.5585 45.5344 13.0102 46.0289C12.8751 46.414 12.8074 46.8248 12.819 47.2505L12.8287 55.0627L12.8315 55.5452L12.8779 56.6779C12.8781 56.6777 12.7381 57.6784 13.7019 57.7531Z" fill="#E9B585"/>
<path d="M20.6535 46.2309C19.8309 46.2881 19.0507 46.657 18.4858 47.236C18.312 47.6629 18.2244 48.1265 18.2373 48.6078L18.3997 56.1516L18.4023 56.6341L18.4491 57.7669C18.4491 57.7669 18.3089 58.7675 19.2729 58.8422C20.2367 58.917 20.1949 57.8719 20.1949 57.8719L20.1415 55.7814L19.9795 48.3552C19.9582 47.5732 20.1961 46.8359 20.6535 46.2309Z" fill="#E9B585"/>
<path d="M25.9762 58.1071L25.9228 56.0167L25.9134 48.3221C25.9053 48.0165 25.9393 47.7187 26.0079 47.4316C25.934 47.4467 25.8593 47.4587 25.7865 47.4788C25.1439 47.6555 24.5916 48.0095 24.1735 48.4771C24.1735 48.5096 24.1707 48.5418 24.1715 48.5745L24.1812 56.3867L24.1838 56.8694L24.2306 58.0021C24.2306 58.0021 24.0908 59.0028 25.0544 59.0775C26.018 59.1518 25.9762 58.1071 25.9762 58.1071Z" fill="#E9B585"/>
<path d="M34.5249 0.703242L23.6101 0C22.9949 0.00916406 22.2729 0.201012 23.3483 1.25129C23.3487 1.25169 23.3491 1.25209 23.3497 1.25269L30.8602 8.58872L31.3683 8.80328L35.1036 0.939715L34.5249 0.703242Z" fill="#FBCB99"/>
<path d="M22.8285 0.263565C22.7325 0.447643 22.8375 0.752647 23.3483 1.25149C23.3487 1.25189 23.3491 1.25229 23.3497 1.25289L30.8602 8.58892L31.3682 8.80348L33.3094 4.7171L22.8285 0.263565Z" fill="#E9B585"/>
<path d="M30.7154 8.52756L46.3399 15.1265L48.6293 6.61984L34.4515 0.661205L30.7154 8.52756Z" fill="#F37521"/>
<path d="M69.0034 15.1833L67.1941 21.7254L67.1746 21.8523C67.1663 21.9061 67.1541 21.98 67.138 22.071L66.8373 23.7835L72.833 26.3162L76.5365 18.3496L69.0034 15.1833Z" fill="#F37521"/>
<path d="M69.0035 15.1833L67.8405 19.3892L74.6643 22.2517L76.3561 18.7172L76.5368 18.349L69.0035 15.1833Z" fill="#F7971D"/>
<path d="M32.6568 4.43959L47.5169 10.7536L48.6294 6.61984L34.4516 0.661205L32.6568 4.43959Z" fill="#F7971D"/>
<path d="M101.546 49.4407V41.7762C101.546 39.925 100.04 38.4193 98.189 38.4193H98.018C97.0439 38.4193 96.1657 38.8361 95.5517 39.5007C95.0831 38.211 93.8454 37.287 92.3955 37.287H92.2246C91.3038 37.287 90.4491 37.6551 89.8292 38.2877C89.3233 37.0736 88.124 36.2184 86.7291 36.2184H86.5582C85.7185 36.2184 84.9274 36.5303 84.3227 37.0716C83.9406 35.638 82.6308 34.5784 81.0785 34.5784H80.9075C79.0566 34.5784 77.5509 36.0843 77.5509 37.9354V43.4865L76.7965 43.3685C75.1011 43.1034 73.8102 43.3476 72.9217 44.0925C71.1839 45.5464 71.2203 48.3992 71.4743 52.585C71.7805 57.6388 76.8405 61.9084 77.9792 62.8079V68.3251H98.0511V61.2042C101.403 58.1601 101.809 52.219 101.546 49.4407Z" fill="#FBCB99"/>
<path d="M79.7399 68.3255V62.1268C77.7679 60.5207 73.6962 56.8301 73.439 52.5854C73.1852 48.3992 72.9304 45.5468 74.6682 44.0929C75.0672 43.7584 76.4253 43.5305 76.9869 43.3986L76.7965 43.3687C75.1011 43.1036 73.8102 43.3478 72.9217 44.0927C71.1839 45.5466 71.2203 48.3994 71.4743 52.5852C71.7805 57.639 76.8405 61.9086 77.9792 62.8081V68.3253H79.7401V68.3255H79.7399Z" fill="#E9B585"/>
<path d="M68.2 10.2285L68.0339 10.189C67.7791 10.1283 67.5175 10.0976 67.2565 10.0976C66.5678 10.0976 65.9215 10.3042 65.3835 10.6656C65.2235 9.30511 64.233 8.12315 62.8233 7.78806L62.6619 7.74981C61.7852 7.53943 60.8447 7.70439 60.098 8.17434C60.0294 7.74284 59.8757 7.32547 59.6404 6.94397C59.1698 6.18096 58.4305 5.64686 57.5585 5.43927L57.3938 5.40022C56.5895 5.20758 55.7289 5.3287 55.0207 5.7122C55.0057 5.12749 54.8366 4.55454 54.5214 4.04295C54.0513 3.27994 53.312 2.74583 52.4352 2.53705L52.2745 2.4992C51.4124 2.295 50.4911 2.44222 49.7362 2.9072C48.9816 3.37238 48.4505 4.10092 48.2349 4.97649L45.6112 14.7241L39.99 12.351L39.2655 14.6324C38.8264 16.0136 38.5361 17.6797 38.2797 19.1491C37.396 24.2182 41.4967 29.6577 42.2946 30.6574L42.302 40.4916H62.1932L62.2175 33.6357C66.9415 30.9823 68.1195 24.0206 68.2628 23.0462L70.6751 14.3238L70.7046 14.2041C71.0887 12.4316 69.9653 10.6476 68.2 10.2285Z" fill="#FBCB99"/>
<path d="M40.7076 19.1497C40.964 17.6803 41.2543 16.0144 41.6934 14.633L42.1308 13.2556L39.99 12.3516L39.2655 14.633C38.8264 16.0142 38.5361 17.6803 38.2797 19.1497C37.396 24.2188 41.4967 29.6583 42.2946 30.658L42.302 40.4922H44.7298L44.7225 30.658C43.925 29.6581 39.8239 24.2188 40.7076 19.1497Z" fill="#E9B585"/>
<path d="M81.5269 21.4742C81.2032 20.6769 80.5882 20.0534 79.7921 19.7173L76.0456 18.1425L72.3909 26.1289L76.3747 27.8115C76.7751 27.9809 77.1977 28.0671 77.6306 28.0671C78.0481 28.0671 78.4569 27.9868 78.842 27.8301C79.6399 27.5065 80.2641 26.8911 80.5987 26.0981L81.5096 23.9413C81.8451 23.1482 81.851 22.2723 81.5269 21.4742Z" fill="#EF4C35"/>
<path d="M39.3111 100.301C39.3111 101.735 40.3649 101.973 40.905 102H41.1441C41.1899 101.997 41.2166 101.994 41.2166 101.994L41.2184 102H62.6394L62.6412 101.994C62.6412 101.994 62.6679 101.998 62.7137 102H62.9528C63.447 101.975 64.3712 101.774 64.5246 100.641V47.9922H39.3001V100.111C39.3067 100.169 39.3111 100.231 39.3111 100.301Z" fill="#3B7EAD"/>
<path d="M77.0712 102H77.3102C77.356 101.997 77.3827 101.994 77.3827 101.994L77.3843 102H98.8057L98.8073 101.994C98.8073 101.994 98.834 101.998 98.8798 102H99.1189C99.6361 101.974 100.625 101.755 100.707 100.476V75.6565H75.4828V100.476C75.5653 101.755 76.554 101.974 77.0712 102Z" fill="#3B7EAD"/>
<path d="M62.6408 101.994C62.6408 101.994 62.6675 101.997 62.7133 102H62.9523C63.4466 101.975 64.3708 101.773 64.5242 100.64V47.9922H44.7553V102H62.639L62.6408 101.994Z" fill="#6598CB"/>
<path d="M98.8072 101.994C98.8072 101.994 98.8339 101.997 98.8797 102H99.1187C99.6359 101.973 100.625 101.754 100.707 100.476V75.6563H80.5013V102H98.8056L98.8072 101.994Z" fill="#6598CB"/>
<path d="M29.3607 100.353V84.6863H4.13623V100.319C4.13623 101.595 4.97056 101.924 5.53495 102H27.9628C28.5222 101.924 29.3454 101.6 29.3607 100.353Z" fill="#3B7EAD"/>
<path d="M29.3607 100.353V84.6863H9.59143V102H27.9628C28.5222 101.924 29.3454 101.6 29.3607 100.353Z" fill="#6598CB"/>
<path d="M64.5192 41.263C64.5192 39.9183 63.6522 39.6232 63.1161 39.5696H40.7032C40.1671 39.6234 39.3001 39.9183 39.3001 41.263V49.0837H64.5242V41.4785C64.5212 41.4136 64.5192 41.3437 64.5192 41.263Z" fill="#E1E5EC"/>
<path d="M64.5192 41.263C64.5192 39.9183 63.6522 39.6232 63.1161 39.5696H44.7557V49.0839H64.5246V41.4787C64.5212 41.4136 64.5192 41.3437 64.5192 41.263Z" fill="#EFF2F9"/>
<path d="M52.4352 2.53745L52.2744 2.4996C51.4124 2.2954 50.491 2.44262 49.7362 2.9076C48.9815 3.37277 48.4504 4.10132 48.2349 4.97688L46.1734 12.5121L46.048 12.9783L45.7926 14.083C45.7926 14.083 45.3924 15.0107 46.302 15.3382C47.2115 15.6658 47.4482 14.6472 47.4482 14.6472L47.9508 12.6173L49.9818 5.19562C50.1974 4.31966 50.7285 3.59132 51.4831 3.12634C51.8937 2.87333 52.3541 2.71814 52.8271 2.65857C52.6992 2.61176 52.5695 2.56932 52.4352 2.53745Z" fill="#E9B585"/>
<path d="M52.6689 17.1575C53.5783 17.485 53.815 16.4664 53.815 16.4664L54.3176 14.4366L56.3486 7.01489C56.5058 6.37639 56.8321 5.81798 57.2892 5.3811C56.5487 5.22949 55.7701 5.33826 55.1107 5.66956C54.8784 6.00485 54.7043 6.38356 54.6025 6.79674L52.5408 14.3318L52.4155 14.798L52.1601 15.9026C52.1597 15.9022 51.7594 16.8302 52.6689 17.1575Z" fill="#E9B585"/>
<path d="M62.5466 7.72829C61.7383 7.56553 60.8883 7.71455 60.1904 8.12274C59.9097 8.48871 59.7023 8.91225 59.587 9.37981L57.7438 16.6967L57.6185 17.1629L57.3631 18.2676C57.3631 18.2676 56.9629 19.1953 57.8725 19.5228C58.7821 19.8504 59.0186 18.8317 59.0186 18.8317L59.5212 16.8019L61.3339 9.59856C61.5202 8.83854 61.9451 8.19088 62.5466 7.72829Z" fill="#E9B585"/>
<path d="M64.6216 20.396L65.1243 18.3662L67.1553 10.9445C67.2284 10.6476 67.3404 10.3695 67.4824 10.1109C67.4071 10.106 67.332 10.0976 67.2567 10.0976C66.5899 10.0976 65.9642 10.2926 65.4366 10.6325C65.4281 10.6642 65.4167 10.6943 65.4089 10.7261L63.3474 18.2614L63.2221 18.7276L62.9667 19.8322C62.9667 19.8322 62.5665 20.76 63.4761 21.0875C64.385 21.4146 64.6216 20.396 64.6216 20.396Z" fill="#E9B585"/>
<path d="M80.947 34.58L80.782 34.5862C79.8965 34.618 79.0472 35.0043 78.4426 35.6526C77.8384 36.3014 77.5194 37.1445 77.5437 38.0462L77.5535 45.8584L77.5561 46.3409L77.6025 47.4736C77.6025 47.4736 77.4626 48.4743 78.4265 48.549C79.3901 48.6237 79.3484 47.5786 79.3484 47.5786L79.295 45.4882L79.2857 37.7936C79.2614 36.8919 79.5803 36.0488 80.1846 35.4002C80.5135 35.0474 80.9165 34.7756 81.3566 34.5929C81.2211 34.5818 81.0848 34.5754 80.947 34.58Z" fill="#E9B585"/>
<path d="M85.0481 48.8154C86.0119 48.8901 85.9703 47.845 85.9703 47.845L85.9165 45.7546L85.9072 38.0599C85.8894 37.4025 86.0562 36.7776 86.3809 36.2353C85.6267 36.2855 84.9047 36.5967 84.3566 37.0911C84.2216 37.4762 84.1538 37.887 84.1654 38.3128L84.1752 46.1249L84.1779 46.6074L84.2244 47.7402C84.2244 47.74 84.0845 48.7409 85.0481 48.8154Z" fill="#E9B585"/>
<path d="M91.9998 37.293C91.1775 37.3501 90.3971 37.7191 89.8321 38.298C89.6584 38.7249 89.5708 39.1885 89.5837 39.6698L89.7461 47.2136L89.7487 47.6962L89.7953 48.8289C89.7953 48.8289 89.655 49.8296 90.6191 49.9043C91.5829 49.979 91.541 48.9339 91.541 48.9339L91.4876 46.8435L91.3257 39.4172C91.3046 38.6355 91.5422 37.8984 91.9998 37.293Z" fill="#E9B585"/>
<path d="M97.3224 49.1694L97.269 47.079L97.2596 39.3844C97.2514 39.0787 97.2855 38.7809 97.3542 38.4938C97.2803 38.509 97.2056 38.5209 97.1329 38.5411C96.4902 38.718 95.938 39.0718 95.5198 39.5393C95.5198 39.5718 95.517 39.6041 95.5178 39.6368L95.5276 47.4489L95.5302 47.9316L95.5768 49.0642C95.5768 49.0642 95.437 50.0649 96.4006 50.1396C97.3644 50.2143 97.3224 49.1694 97.3224 49.1694Z" fill="#E9B585"/>
<path d="M100.702 68.9271C100.702 67.5824 99.8348 67.2873 99.2987 67.2337H76.8859C76.3498 67.2875 75.4828 67.5824 75.4828 68.9271V76.7478H100.707V69.1427C100.704 69.0777 100.702 69.0078 100.702 68.9271Z" fill="#E1E5EC"/>
<path d="M100.702 68.9271C100.702 67.5824 99.8347 67.2873 99.2986 67.2337H80.5013V76.748H100.707V69.1429C100.704 69.0777 100.702 69.0078 100.702 68.9271Z" fill="#EFF2F9"/>
<path d="M29.3549 77.9029C29.3549 76.5582 28.4879 76.2631 27.9518 76.2095H5.53933C5.00323 76.2633 4.13623 76.5582 4.13623 77.9029V85.7238H29.3603V78.1187C29.3571 78.0535 29.3549 77.9838 29.3549 77.9029Z" fill="#E1E5EC"/>
<path d="M29.3549 77.9029C29.3549 76.5582 28.4879 76.2631 27.9518 76.2095H9.59143V85.7238H29.3603V78.1187C29.3571 78.0535 29.3549 77.9838 29.3549 77.9029Z" fill="#EFF2F9"/>
</svg>
