<svg width="52" height="75" viewBox="0 0 52 75" fill="none" xmlns="http://www.w3.org/2000/svg">
<path fill-rule="evenodd" clip-rule="evenodd" d="M18.5129 25.332L13.4997 30.2355L10.9757 27.7667C10.5231 27.3241 9.79202 27.3241 9.33944 27.7667C8.88685 28.2094 8.88685 28.9245 9.33944 29.3672L12.6642 32.6532C12.8905 32.8746 13.169 32.9938 13.4823 32.9938C13.7956 32.9938 14.0915 32.8746 14.3004 32.6532L20.1492 26.9325C20.6018 26.4898 20.6018 25.7747 20.1492 25.332C19.6966 24.8893 18.9655 24.8893 18.5129 25.332ZM22.0645 30.2866C22.0645 29.7077 22.4822 29.248 23.0218 29.248H40.6899C41.2121 29.248 41.6473 29.7077 41.6473 30.2866C41.6473 30.8655 41.2295 31.3252 40.6899 31.3252H23.0218C22.4996 31.3252 22.0645 30.8655 22.0645 30.2866ZM41.6473 42.6941C41.6473 42.1152 41.2121 41.6555 40.6899 41.6555H23.0218C22.4822 41.6555 22.0645 42.1152 22.0645 42.6941C22.0645 43.273 22.4996 43.7327 23.0218 43.7327H40.6899C41.2295 43.7327 41.6473 43.273 41.6473 42.6941ZM18.5129 37.7395L13.4997 42.643L10.9757 40.1742C10.5231 39.7316 9.79202 39.7316 9.33944 40.1742C8.88685 40.6169 8.88685 41.332 9.33944 41.7747L12.6642 45.0607C12.8905 45.2821 13.169 45.4012 13.4823 45.4012C13.7956 45.4012 14.0915 45.2821 14.3004 45.0607L20.1492 39.34C20.6018 38.8973 20.6018 38.1822 20.1492 37.7395C19.6966 37.2968 18.9655 37.2968 18.5129 37.7395ZM41.6473 56.2718C41.6473 55.6929 41.2121 55.2332 40.6899 55.2332H23.0218C22.4822 55.2332 22.0645 55.6929 22.0645 56.2718C22.0645 56.8507 22.4996 57.3104 23.0218 57.3104H40.6899C41.2295 57.3104 41.6473 56.8507 41.6473 56.2718ZM18.5129 51.3172L13.4997 56.2208L10.9757 53.752C10.5231 53.3093 9.79202 53.3093 9.33944 53.752C8.88685 54.1947 8.88685 54.9098 9.33944 55.3524L12.6642 58.6385C12.8905 58.8598 13.169 58.979 13.4823 58.979C13.7956 58.979 14.0915 58.8598 14.3004 58.6385L20.1492 52.9177C20.6018 52.475 20.6018 51.7599 20.1492 51.3172C19.6966 50.8746 18.9655 50.8746 18.5129 51.3172Z" fill="white"/>
<path d="M43.4652 8.24064H37.4946C37.425 8.24064 37.3728 8.24064 37.3032 8.25766V6.99773C37.3032 5.60159 36.1543 4.47787 34.7269 4.47787H31.7678C31.1585 1.85585 28.7912 0 25.9886 0C23.1861 0 20.8362 1.85585 20.2095 4.47787H16.5889C15.1615 4.47787 14.0126 5.60159 14.0126 6.99773V8.24064H7.85055C3.51621 8.24064 0 11.6969 0 15.9194V67.3212C0 71.5607 3.51621 75 7.85055 75H43.4827C47.817 75 51.3332 71.5607 51.3332 67.3212V66.7423V65.2781V28.8082V25.42V15.9194C51.3158 11.6969 47.7996 8.24064 43.4652 8.24064ZM16.7281 7.15096H20.6273C21.7239 7.15096 22.6465 6.38479 22.8206 5.32917C23.0643 3.79682 24.4046 2.6731 25.9886 2.6731C27.5727 2.6731 28.913 3.7798 29.1567 5.32917C29.3308 6.38479 30.2533 7.15096 31.35 7.15096H34.5877V11.8331H16.7281V7.15096ZM48.5829 25.437V66.7423V67.3383C48.5829 70.0965 46.2852 72.3439 43.4652 72.3439H7.85055C5.03062 72.3439 2.7329 70.0965 2.7329 67.3383V15.9194C2.7329 13.1612 5.03062 10.9137 7.85055 10.9137H13.9952V11.9694C13.9952 13.3655 15.1441 14.4892 16.5715 14.4892H34.7269C36.1543 14.4892 37.3032 13.3655 37.3032 11.9694V10.8967C37.3554 10.8967 37.425 10.9137 37.4946 10.9137H43.4652C46.2852 10.9137 48.5829 13.1612 48.5829 15.9194V25.437Z" fill="white"/>
<path d="M26 10C27.1046 10 28 9.10457 28 8C28 6.89543 27.1046 6 26 6C24.8954 6 24 6.89543 24 8C24 9.10457 24.8954 10 26 10Z" fill="white"/>
</svg>
