<svg width="110" height="115" viewBox="0 0 110 115" fill="none" xmlns="http://www.w3.org/2000/svg">
<rect width="86.6875" height="115" fill="#EDEEF0"/>
<rect opacity="0.4" x="11.37" y="10.1198" width="34.678" height="2.5" fill="#5B5B5F"/>
<path opacity="0.4" d="M11.37 21.6523H75.3175V24.1523H11.37V21.6523Z" fill="#5B5B5F"/>
<path opacity="0.4" d="M11.37 33.185H75.3175V35.685H11.37V33.185Z" fill="#5B5B5F"/>
<path opacity="0.4" d="M11.37 44.7175H75.3175V47.2175H11.37V44.7175Z" fill="#5B5B5F"/>
<path opacity="0.4" d="M11.37 56.25H75.3175V58.75H11.37V56.25Z" fill="#5B5B5F"/>
<path opacity="0.4" d="M11.37 67.7825H75.3175V70.2825H11.37V67.7825Z" fill="#5B5B5F"/>
<path opacity="0.4" d="M11.37 79.315H75.3175V81.815H11.37V79.315Z" fill="#5B5B5F"/>
<path opacity="0.4" d="M11.37 90.8477H75.3175V93.3477H11.37V90.8477Z" fill="#5B5B5F"/>
<path opacity="0.4" d="M11.37 102.38H75.3175V104.88H11.37V102.38Z" fill="#5B5B5F"/>
<path d="M68.4752 88.6483C78.8599 88.6483 87.2782 80.2299 87.2782 69.8453C87.2782 59.4606 78.8599 51.0423 68.4752 51.0423C58.0906 51.0423 49.6722 59.4606 49.6722 69.8453C49.6722 80.2299 58.0906 88.6483 68.4752 88.6483Z" fill="#90C5FF"/>
<path d="M108.313 103.774L102.404 109.683L85.3076 92.5871L91.2167 86.6781L108.313 103.774Z" fill="#59595A"/>
<path d="M91.2167 86.6778L85.3076 92.5869L83.6951 90.9743L89.6041 85.0653L91.2167 86.6778Z" fill="#ABCB57"/>
<path d="M109.925 105.387L104.016 111.296L102.404 109.683L108.313 103.774L109.925 105.387Z" fill="#ABCB57"/>
<path opacity="0.2" d="M100.865 77.1272L99.2545 81.27L46.6507 60.847L48.2582 56.7037L100.865 77.1272Z" fill="white"/>
<path opacity="0.2" d="M105.879 71.1975L104.268 75.3415L51.664 54.9185L53.2695 50.7772L105.879 71.1975Z" fill="white"/>
<path fill-rule="evenodd" clip-rule="evenodd" d="M83.302 55.0182C87.2625 58.9787 89.4435 64.2445 89.4435 69.8452C89.4435 74.7107 87.7957 79.322 84.7673 83.0455L88.1955 86.4737L85.1037 89.5655L81.6755 86.1372C77.952 89.1657 73.3407 90.8135 68.4753 90.8135C62.8745 90.8135 57.609 88.6325 53.6485 84.672C49.688 80.7117 47.507 75.446 47.507 69.8452C47.507 64.2442 49.688 58.9787 53.6485 55.0182C57.6087 51.058 62.8745 48.877 68.4753 48.877C74.076 48.8767 79.3415 51.058 83.302 55.0182ZM56.7108 81.61C59.853 84.7525 64.0312 86.483 68.4753 86.483C72.9193 86.483 77.0972 84.7523 80.2397 81.61C83.382 78.4677 85.1128 74.2895 85.1128 69.8455C85.1128 65.4015 83.3823 61.2232 80.2397 58.081C77.0975 54.9385 72.9193 53.2077 68.4753 53.2077C64.0312 53.208 59.8533 54.9385 56.7108 58.081C53.5685 61.2232 51.8377 65.4015 51.8377 69.8455C51.8377 74.2895 53.5683 78.4677 56.7108 81.61Z" fill="#59595A"/>
<path opacity="0.4" d="M89.4435 69.8452C89.4435 64.2445 87.2625 58.9787 83.302 55.0185C79.3415 51.058 74.076 48.877 68.4752 48.877C62.8745 48.877 57.6087 51.058 53.6485 55.0185L56.7107 58.0807C59.8532 54.9382 64.0312 53.2077 68.4752 53.2077C72.9195 53.2077 77.0975 54.9385 80.2397 58.0807C83.3822 61.2232 85.1127 65.4012 85.1127 69.8452C85.1127 74.2895 83.382 78.4675 80.2397 81.6097L83.0787 84.4487L83.302 84.672L86.6497 88.0197L87.456 88.826L106.971 108.341L109.925 105.386L108.313 103.774L91.2167 86.6777L89.6042 85.0653L88.1955 86.474L84.768 83.0465C87.7965 79.3227 89.4435 74.7107 89.4435 69.8452Z" fill="#5B5B5F"/>
</svg>
