<svg width="66" height="67" viewBox="0 0 66 67" fill="none" xmlns="http://www.w3.org/2000/svg">
<g clip-path="url(#clip0)">
<path d="M60.9349 0.906414C60.6279 0.606012 60.3209 0.455811 59.8605 0.455811H58.3256H52.186H18.4186C13.3535 0.455811 9.2093 4.51124 9.2093 9.46787V15.1755C9.2093 16.0767 9.82326 16.6775 10.7442 16.6775C11.6651 16.6775 12.2791 16.0767 12.2791 15.1755V9.46787C12.2791 6.16345 15.0419 3.45983 18.4186 3.45983H52.186H52.9535C51.4186 5.11204 50.6512 7.21486 50.6512 9.46787V57.5322C50.6512 60.8366 47.8884 63.5402 44.5116 63.5402C41.1349 63.5402 38.3721 60.8366 38.3721 57.5322C38.3721 56.631 37.7581 56.0302 36.8372 56.0302H12.2791V50.0221C12.2791 49.1209 11.6651 48.5201 10.7442 48.5201C9.82326 48.5201 9.2093 49.1209 9.2093 50.0221V56.0302H1.53488C0.613953 56.0302 0 56.631 0 57.5322C0 62.4888 4.14419 66.5443 9.2093 66.5443H10.7442H44.5116C49.5767 66.5443 53.7209 62.4888 53.7209 57.5322V9.46787C53.7209 6.46385 56.0233 3.91043 59.093 3.45983C61.3953 3.91043 62.9302 5.71285 62.9302 7.96586H56.7907C55.8698 7.96586 55.2558 8.56666 55.2558 9.46787C55.2558 10.3691 55.8698 10.9699 56.7907 10.9699H64.4651C65.386 10.9699 66 10.3691 66 9.46787V7.96586C66 4.66144 63.8512 1.95782 60.9349 0.906414ZM10.7442 63.5402H9.2093C6.29302 63.5402 3.9907 61.5876 3.22326 59.0342H35.4558C35.7628 60.6864 36.5302 62.3386 37.6047 63.5402H10.7442Z" fill="white"/>
<path d="M8.44177 34.8519L6.59991 45.366C6.44642 45.9668 6.7534 46.5676 7.21386 46.868C7.67433 47.1684 8.28828 47.3186 8.90224 47.0182L18.572 42.0616L28.2418 47.0182C28.3953 47.1684 28.7022 47.1684 29.0092 47.1684C29.3162 47.1684 29.6232 47.0182 29.9301 46.868C30.3906 46.5676 30.6976 45.9668 30.5441 45.366L28.7022 34.8519L36.5301 27.3419C36.9906 26.8913 37.1441 26.2904 36.9906 25.8398C36.8371 25.239 36.3767 24.9386 35.7627 24.7884L25.0185 23.2864L20.2604 13.6736C19.7999 12.6222 17.958 12.6222 17.4976 13.6736L12.279 23.2864L1.53479 24.7884C0.92084 24.9386 0.460375 25.239 0.306887 25.8398C0.153398 26.4406 0.306887 27.0415 0.767352 27.3419L8.44177 34.8519ZM13.5069 26.1402C13.9674 26.1402 14.4278 25.6896 14.7348 25.3892L18.572 17.8792L22.4092 25.3892C22.5627 25.8398 23.0232 26.1402 23.6371 26.1402L32.079 27.3419L25.9394 33.1997C25.6325 33.5001 25.479 34.1009 25.479 34.5515L26.8604 42.8126L19.186 38.9073C19.0325 38.7571 18.7255 38.7571 18.4185 38.7571C18.1115 38.7571 17.958 38.7571 17.6511 38.9073L9.97665 42.8126L11.358 34.5515C11.5115 34.1009 11.2046 33.5001 10.8976 33.1997L4.75805 27.3419L13.5069 26.1402Z" fill="white"/>
</g>
<defs>
<clipPath id="clip0">
<rect width="66" height="66.0884" fill="white" transform="translate(0 0.455811)"/>
</clipPath>
</defs>
</svg>
