<svg width="89" height="113" viewBox="0 0 89 113" fill="none" xmlns="http://www.w3.org/2000/svg">
<path d="M57.06 36.1269L22.8063 51.5493L50.4932 112.181L65.4015 99.6671L84.6581 96.8471L57.06 36.1269Z" fill="#2B414D"/>
<path d="M31.6804 36.7438L65.9341 52.1662L38.2473 112.886L23.339 100.284L3.99374 97.464C3.99352 97.464 31.6804 36.7438 31.6804 36.7438Z" fill="#475F6C"/>
<path d="M88.7402 44.1465C88.7402 47.4072 84.0369 50.1393 83.327 53.2237C82.617 56.3962 85.723 60.8909 84.3918 63.7991C82.9719 66.7074 77.5589 67.0598 75.6065 69.5275C73.6541 71.9951 74.5417 77.4589 72.0569 79.486C69.5721 81.5131 64.6027 79.3978 61.7631 80.808C58.9234 82.2181 57.4149 87.5056 54.3089 88.2107C51.2917 88.9158 47.6535 84.8619 44.4588 84.8619C41.2642 84.8619 37.6258 88.9158 34.6086 88.2107C31.5026 87.5056 29.9941 82.2179 27.1545 80.808C24.3148 79.3978 19.2567 81.5131 16.8607 79.486C14.3759 77.4592 15.2634 71.9951 13.311 69.5275C11.3587 67.0598 5.94565 66.7074 4.52571 63.7991C3.19454 60.9791 6.30052 56.3964 5.59055 53.2237C4.70326 50.1391 0 47.4072 0 44.1465C0 40.8859 4.70326 38.1537 5.41323 35.0694C6.1232 31.8969 3.01721 27.4022 4.34838 24.4939C5.76833 21.5857 11.1813 21.2333 13.1337 18.7656C15.0861 16.298 14.1985 10.8341 16.6833 8.80708C19.1681 6.78001 24.1375 8.89524 26.9771 7.48509C29.8168 6.07494 31.3253 0.787433 34.4313 0.0823579C37.4485 -0.622717 41.0867 3.43119 44.2814 3.43119C47.476 3.43119 51.1144 -0.622717 54.1316 0.0823579C57.2376 0.787433 58.7461 6.07516 61.5857 7.48509C64.4254 8.89524 69.4835 6.78001 71.8796 8.80708C74.3643 10.8339 73.4768 16.298 75.4292 18.7656C77.3816 21.2333 82.7946 21.5857 84.2145 24.4939C85.5457 27.314 82.4397 31.8967 83.1497 35.0694C84.037 38.154 88.7402 40.8859 88.7402 44.1465Z" fill="#EFC75E"/>
<path fill-rule="evenodd" clip-rule="evenodd" d="M44.3702 12.4204C26.7111 12.4204 12.4237 26.6089 12.4237 44.1465C12.4237 61.6841 26.7108 75.8727 44.3702 75.8727C62.0296 75.8727 76.3165 61.6839 76.3165 44.1465C76.3165 26.6092 62.0294 12.4204 44.3702 12.4204ZM26.6223 44.1465C26.6223 34.4525 34.5201 26.521 44.3702 26.521C54.2202 26.521 62.1182 34.4525 62.1182 44.1465C62.1182 53.8406 54.2204 61.7721 44.3702 61.7721C34.6088 61.7721 26.6223 53.8406 26.6223 44.1465ZM36.3837 44.1465C36.3837 48.5529 39.9333 52.078 44.3702 52.078C48.8072 52.078 52.3568 48.5529 52.3568 44.1465C52.3568 39.7402 48.8072 36.2151 44.3702 36.2151C39.9333 36.2151 36.3837 39.7402 36.3837 44.1465ZM17.7482 44.1465C17.7482 58.7759 29.6395 70.585 44.3702 70.585C59.101 70.585 70.9923 58.7759 70.9923 44.1465C70.9923 29.5172 59.1012 17.7081 44.3702 17.7081C29.6393 17.7081 17.7482 29.5172 17.7482 44.1465Z" fill="#D7B354"/>
</svg>
