<svg width="44" height="63" viewBox="0 0 44 63" fill="none" xmlns="http://www.w3.org/2000/svg">
<path d="M39.6 0H16.1333C13.64 0 11.7333 1.90465 11.7333 4.39535V22.7093L4.84 28.1302C2.78667 30.1814 1.46667 31.6465 1.46667 35.1628V55.6744C0.656649 55.6744 0 56.3311 0 57.1411V61.5333C0 62.3433 0.656649 63 1.46667 63C2.27668 63 2.93333 62.3433 2.93333 61.5333V58.6047H26.4V61.5333C26.4 62.3433 27.0567 63 27.8667 63C28.6767 63 29.3333 62.3433 29.3333 61.5333V57.6744C29.3333 56.5699 28.4379 55.6744 27.3333 55.6744H26.4V54.9419C27.72 53.7698 30.8 50.693 30.8 46.8837V42.4884H39.6C42.0933 42.4884 44 40.5837 44 38.093V4.39535C44 1.90465 42.0933 0 39.6 0ZM16.1333 2.93023H33.7333V39.5581H22.5867L25.2267 36.9209L25.3733 36.7744C27.8667 33.5512 26.9867 29.0093 24.4933 26.8116C22.88 25.3465 20.9733 25.3465 19.5067 26.8116L14.6667 31.6465V4.39535C14.6667 3.51628 15.2533 2.93023 16.1333 2.93023ZM27.8667 46.8837C27.8667 50.107 24.0533 53.0372 24.0533 53.0372L23.4667 53.4767V55.6744H4.4V35.1628C4.4 32.8186 4.84 32.2326 6.74667 30.4744L11.7333 26.5186V34.5767L8.80109 37.5059C8.23365 38.0727 8.23365 38.9924 8.80109 39.5592C9.36767 40.1252 10.2857 40.1252 10.8522 39.5592L21.56 28.8628C21.7067 28.7163 22 28.4233 22.5867 29.0093C23.76 30.1814 24.64 32.9651 23.1733 34.8698L19.0667 38.9721V43.9535C19.0667 47.0439 17.3961 48.0483 15.6407 48.2868C15.1062 48.3594 14.6667 48.7861 14.6667 49.3256C14.6667 50.4045 15.5521 51.3031 16.6046 51.0657C19.3911 50.437 22 48.3535 22 43.9535V42.4884H27.8667V46.8837ZM41.0667 38.093C41.0667 38.9721 40.48 39.5581 39.6 39.5581H36.6667V2.93023H39.6C40.48 2.93023 41.0667 3.51628 41.0667 4.39535V38.093Z" fill="white"/>
</svg>
