<svg width="109" height="122" viewBox="0 0 109 122" fill="none" xmlns="http://www.w3.org/2000/svg">
<path d="M93.7552 7.28154C93.7552 3.26005 96.9827 0.000265217 100.964 0.000265217L100.965 0H23.2296C16.7784 0 11.5489 5.2818 11.5489 11.7974V91.1679C11.5489 97.6835 16.7784 102.965 23.2296 102.965H82.0745C88.5256 102.965 93.7552 97.6835 93.7552 91.1679V20.0229V11.7974V7.28154Z" fill="#D8D9DD"/>
<path d="M100.965 0.000267029C96.983 0.000267029 93.7555 3.26032 93.7555 7.28155V20.0229H108.174V7.28155C108.174 3.26005 104.946 0.000267029 100.965 0.000267029Z" fill="#CDCDCD"/>
<path d="M84.4245 15.3831C84.4245 12.1252 87.0394 9.48391 90.2651 9.48391V9.48364H30.2576C25.0312 9.48364 20.7943 13.7629 20.7943 19.0415V83.6344C20.7943 88.9131 25.0312 93.1923 30.2576 93.1923H74.9608C80.1872 93.1923 84.4242 88.9131 84.4242 83.6344V15.3831H84.4245Z" fill="#EDEEF0"/>
<path d="M75.2883 92.7465C75.2883 88.0092 78.3076 83.993 82.5049 82.528H10.1175C4.52974 82.528 0 87.103 0 92.7465C0 98.3901 4.52974 102.965 10.1175 102.965H82.5049C78.3076 101.5 75.2883 97.4841 75.2883 92.7465Z" fill="#CDCDCD"/>
<rect x="28.0243" y="23.6083" width="49.1704" height="5.30435" fill="#F5B71F"/>
<rect x="28.0243" y="42.5738" width="49.1704" height="5.30435" fill="#F5B71F"/>
<rect x="28.0243" y="61.5392" width="49.1704" height="5.30435" fill="#F5B71F"/>
<path d="M62.9487 122L54.9811 115.869L46.6338 122V100.54H62.9487V122Z" fill="#C8523B"/>
<path d="M66.1222 96.6513C66.1222 103.043 60.9911 108.227 54.6602 108.227C48.3294 108.227 43.1983 103.043 43.1983 96.6513C43.1983 90.258 48.3294 85.074 54.6602 85.074C60.9911 85.074 66.1222 90.258 66.1222 96.6513Z" fill="#E5C400"/>
<path opacity="0.3" d="M66.1222 96.6513C66.1222 90.258 60.9911 85.0743 54.6602 85.0743V100.54V108.227V116.008L54.8498 115.869L62.818 122V104.78C64.8604 102.69 66.1222 99.8196 66.1222 96.6513Z" fill="#5B5B5F"/>
</svg>
