<svg width="279" height="262" viewBox="0 0 279 262" fill="none" xmlns="http://www.w3.org/2000/svg">
<path d="M85.0349 46.5809L80.2253 11.2437L102.67 3.21248L145.955 0L101.067 24.0936L85.0349 46.5809Z" fill="#C1B8B7"/>
<path d="M88.2412 19.2749L85.0349 46.5809L145.955 0L88.2412 19.2749Z" fill="#DAD5D4"/>
<path d="M88.2412 19.2749L119.04 36.2466C119.759 36.6427 120.66 36.4311 121.129 35.7565L145.955 0L88.2412 19.2749Z" fill="#E6E3E2"/>
<path d="M80.2253 11.2437L64.9827 3.02053C63.5162 2.22926 64.0774 0 65.7429 0H145.955L80.2253 11.2437Z" fill="#E6E3E2"/>
<path d="M74.9997 54.2463C74.9997 54.2463 -56.3255 142.871 43.1647 186.619C142.655 230.368 279 260.424 279 260.424" stroke="#D7D7D7" stroke-opacity="0.75" stroke-width="3" stroke-dasharray="5 4"/>
</svg>
