<svg width="300" height="595" viewBox="0 0 300 595" fill="none" xmlns="http://www.w3.org/2000/svg">
<path d="M299.191 592.647C299.191 592.647 70.1312 567.243 138.416 360.56C206.701 153.877 70.1312 50.4327 70.1312 50.4327" stroke="#D7D7D7" stroke-opacity="0.75" stroke-width="3" stroke-dasharray="5 4"/>
<path d="M60.9651 46.5809L65.7747 11.2437L43.3302 3.21248L0.0445023 0L44.9334 24.0936L60.9651 46.5809Z" fill="#C1B8B7"/>
<path d="M57.7587 19.2749L60.9651 46.5809L0.0444527 0L57.7587 19.2749Z" fill="#DAD5D4"/>
<path d="M57.7588 19.2749L26.9598 36.2466C26.241 36.6427 25.3396 36.4311 24.8711 35.7565L0.0445023 0L57.7588 19.2749Z" fill="#E6E3E2"/>
<path d="M65.7747 11.2437L81.0173 3.02053C82.4838 2.22926 81.9226 0 80.2571 0H0.0445099L65.7747 11.2437Z" fill="#E6E3E2"/>
</svg>
