<svg width="70" height="68" viewBox="0 0 70 68" fill="none" xmlns="http://www.w3.org/2000/svg">
<g clip-path="url(#clip0)">
<path d="M55.189 13.9794C55.2753 14.0944 55.3472 14.195 55.4334 14.31C56.0661 15.0573 56.7132 15.8047 57.3172 16.5664C57.8924 17.3137 57.8205 18.0467 57.1446 18.7222C55.5341 20.3463 53.7366 21.6973 51.6085 22.574C48.7901 23.7237 46.0004 23.58 43.2251 22.4159C42.765 22.2147 42.3048 22.0134 41.8447 21.7979C41.0107 21.4098 40.3348 20.8493 39.8891 20.0301C39.5008 19.3258 39.055 18.6647 38.5518 18.0036C38.5374 18.1042 38.523 18.1904 38.523 18.2911C38.523 18.9809 38.4799 19.6852 38.5374 20.375C38.6237 21.5392 38.3073 22.5596 37.7321 23.5513C36.4523 25.7646 34.7412 27.4749 32.3398 28.4809C31.2325 28.9408 30.0822 29.0845 28.903 29.0989C27.1487 29.1277 25.4088 29.1133 23.6832 28.7252C22.8204 28.524 22.4753 28.136 22.4322 27.2593C22.4034 26.6556 22.4466 26.0376 22.4609 25.434C22.4609 25.3047 22.4609 25.1897 22.4609 25.0603C22.4322 25.0603 22.4034 25.046 22.3747 25.046C22.2884 25.2759 22.1446 25.4915 22.1015 25.7215C21.8858 26.9143 21.1524 27.7048 20.2033 28.3947C18.4778 29.6451 16.7379 30.8811 14.6959 31.5853C13.6175 31.959 12.5102 32.1458 11.3743 31.8152C10.1088 31.4416 9.24607 30.608 8.82906 29.3432C8.11008 27.1587 8.36891 25.046 9.24607 22.962C10.2958 20.4612 11.9351 18.3629 13.8476 16.4802C17.313 13.074 21.3681 10.5157 25.7539 8.48925C27.954 7.46882 30.2403 6.63524 32.4979 5.72979C33.3032 5.41361 33.3032 5.44235 33.0875 4.59439C32.8862 3.8183 32.6705 3.0422 32.4836 2.26611C32.3685 1.76308 32.5411 1.33192 32.9149 0.972612C33.6339 0.297121 34.4248 0.340237 34.9856 1.15945C35.2013 1.46127 35.3307 1.83494 35.4601 2.19424C35.6614 2.81225 35.8484 3.43025 36.0066 4.04825C36.0928 4.36444 36.251 4.42193 36.553 4.36444C38.0341 4.03388 39.5296 3.71769 41.0107 3.38713C45.9429 2.32359 50.9182 1.94992 55.9511 2.39546C59.3591 2.69727 62.6376 3.54523 65.5998 5.34175C67.3685 6.40528 68.6771 7.89999 69.5399 9.78274C70.8196 12.5422 69.3529 14.7699 67.1097 15.6897C66.0744 16.1065 65.0103 16.3508 63.8887 16.3796C62.4076 16.4083 60.9121 16.3796 59.431 16.4227C58.5251 16.4514 57.8348 16.0203 57.1734 15.4885C56.6557 15.0717 56.1668 14.5974 55.6635 14.1662C55.5485 14.0656 55.4047 13.9938 55.2753 13.9219C55.2465 13.9219 55.2177 13.9507 55.189 13.9794ZM54.2831 17.4144C53.7079 16.782 53.219 16.1927 52.6869 15.6609C51.2921 14.2669 49.8685 12.8871 48.4737 11.493C47.9992 11.0187 47.8985 10.487 48.1573 9.88335C48.4162 9.29409 48.8763 9.03539 49.4947 9.04976C49.7104 9.04976 49.926 9.06413 50.1417 9.09288C53.3915 9.53841 56.3106 10.7313 58.7695 12.9302C59.129 13.2464 59.5173 13.4333 60.0062 13.4476C60.8977 13.4764 61.7749 13.5339 62.6664 13.5051C63.9318 13.462 65.1828 13.3327 66.3476 12.8009C67.0522 12.4703 67.1816 12.2404 67.0234 11.4787C66.8652 10.7026 66.477 10.0271 65.9593 9.42344C64.8377 8.11557 63.3854 7.29636 61.8324 6.62087C59.2297 5.51421 56.4832 5.03993 53.6791 4.91058C49.6816 4.70937 45.7272 5.06867 41.8016 5.80165C38.221 6.47715 34.7555 7.51194 31.3619 8.83418C27.0768 10.487 22.993 12.5422 19.3118 15.316C16.896 17.1413 14.7103 19.1965 13.0854 21.7691C12.2658 23.077 11.6187 24.4567 11.3886 26.0089C11.2736 26.7706 11.3024 27.5467 11.5899 28.2797C11.8488 28.9696 12.1795 29.1708 12.8841 28.9983C13.4737 28.8546 14.0632 28.6534 14.6097 28.3947C16.0333 27.7336 17.2987 26.7994 18.5785 25.8795C18.8804 25.664 19.0674 25.3909 19.1824 25.0316C19.8582 22.9476 20.7785 20.9786 22.0727 19.1965C22.8348 18.1473 23.6976 17.1844 24.7329 16.3939C25.2794 15.9771 25.8258 15.9915 26.401 16.3364C26.9618 16.667 27.0624 17.17 26.9618 17.7305C26.7892 18.6647 26.5591 19.5989 26.3722 20.5331C26.0415 22.2003 25.7251 23.8674 25.4088 25.5346C25.3513 25.8221 25.4375 25.9658 25.7395 25.9802C26.6023 26.0376 27.4507 26.1526 28.3135 26.167C30.1684 26.1957 31.8652 25.6927 33.2744 24.4136C34.1516 23.6231 34.7699 22.6458 35.3451 21.6398C35.5608 21.2805 35.6183 20.9212 35.6039 20.5187C35.5033 17.9749 35.4314 15.4454 35.3595 12.9015C35.3451 12.456 35.3739 12.0104 35.417 11.5793C35.4314 11.3924 35.5464 11.2056 35.6471 11.0331C36.0066 10.4582 37.3582 10.2714 37.8472 11.0187C38.1923 11.5361 38.5518 12.0535 38.8681 12.5853C40.0329 14.4968 41.1688 16.4227 42.348 18.3342C42.5062 18.5785 42.6931 18.8516 42.9375 18.9953C44.2605 19.7858 45.6984 20.2888 47.2371 20.4038C49.1639 20.5619 50.8607 19.872 52.4281 18.8228C53.0608 18.406 53.6504 17.903 54.2831 17.4144Z" fill="white"/>
<path d="M36.4237 59.8835C37.0708 60.3865 37.6747 60.8321 38.2787 61.3063C39.8316 62.5423 41.3847 63.7784 42.952 65.0144C43.6854 65.5892 43.6279 66.121 43.4553 66.5809C43.2396 67.1702 42.6501 67.5439 41.9742 67.5007C41.7441 67.4864 41.4997 67.4001 41.3127 67.2708C40.1336 66.4085 38.9689 65.5318 37.8041 64.6551C36.2511 63.4765 34.6981 62.2836 33.1451 61.1051C33.0301 61.0189 32.8288 60.9327 32.6994 60.9614C30.5712 61.3638 28.4142 61.3638 26.2573 61.3926C25.9553 61.3926 25.639 61.4357 25.337 61.5219C19.7289 63.1891 14.1353 64.8706 8.54159 66.5378C7.49188 66.854 6.42779 67.1414 5.34931 67.4145C4.52968 67.6301 3.89697 67.3283 3.65252 66.624C3.39369 65.8623 3.72442 65.115 4.5153 64.8275C5.89574 64.3389 7.27618 63.879 8.67101 63.4622C12.4816 62.3124 16.2922 61.177 20.1028 60.0416C20.2035 60.0128 20.3041 59.9697 20.4623 59.9122C20.261 59.7973 20.1316 59.711 19.9878 59.6535C17.2988 58.3888 14.8399 56.7935 12.6542 54.7814C10.8279 53.0998 9.21743 51.2458 7.73633 49.2625C4.81727 45.3389 2.57405 41.0416 0.589659 36.5862C0.373965 36.0976 0.18703 35.5802 0.0288538 35.0772C-0.0286647 34.876 -0.0286647 34.5885 0.0719927 34.4304C0.618418 33.525 1.22236 33.0938 2.17142 33.7837C3.88259 35.0053 5.59377 36.2413 7.27618 37.5204C11.1443 40.4523 14.9837 43.413 18.8374 46.3593C21.7277 48.5726 24.618 50.8003 27.4939 53.0136C29.4064 54.4796 31.3045 55.9455 33.217 57.4259C33.4615 57.6127 33.7059 57.6271 33.9504 57.5408C35.2302 57.0522 36.5387 56.6498 37.7466 56.0461C39.0839 55.3706 40.3206 54.5227 41.586 53.7322C42.0461 53.4591 42.5206 53.2867 42.9952 53.6172C43.4985 53.9478 43.8867 54.3502 43.8436 55.0113C43.8148 55.3994 43.671 55.7443 43.3403 55.9599C42.1611 56.736 40.9964 57.5408 39.7741 58.2451C38.7963 58.8056 37.7466 59.2224 36.74 59.711C36.6681 59.7685 36.5675 59.8116 36.4237 59.8835ZM5.55063 39.9062C5.52187 39.9206 5.47873 39.935 5.44997 39.9493C5.50749 40.0787 5.56501 40.2224 5.63691 40.3517C6.42779 41.7315 7.17553 43.1399 8.00954 44.4909C9.92203 47.6384 12.1221 50.556 14.8974 52.9992C16.9393 54.7958 19.1969 56.2761 21.7421 57.2678C24.2154 58.2163 26.775 58.5181 29.392 58.3457C29.4064 58.3457 29.4208 58.3169 29.4639 58.2738C21.4976 52.1513 13.5313 46.0287 5.55063 39.9062Z" fill="white"/>
<path d="M53.7229 67.5441C53.3491 67.6016 53.119 67.3572 52.9752 67.041C52.702 66.4374 52.4144 65.8338 52.2131 65.2014C50.5738 60.0274 48.9345 54.8534 47.3096 49.6795C45.771 44.7354 44.2468 39.7771 42.7225 34.833C41.9173 32.2029 41.1408 29.5441 40.3643 26.8996C40.2492 26.5259 40.1917 26.1379 40.1198 25.7498C39.976 24.7725 41.3708 24.0108 42.0754 24.4276C42.55 24.715 42.8232 25.0456 42.9814 25.563C44.0598 29.0554 45.1671 32.5335 46.2599 36.0259C47.4822 39.9495 48.6901 43.8731 49.898 47.8111C51.6954 53.6749 53.4785 59.5388 55.2615 65.4026C55.6929 66.7392 55.1609 67.4722 53.7229 67.5441Z" fill="white"/>
</g>
<defs>
<clipPath id="clip0">
<rect width="70" height="67.0748" fill="white" transform="translate(0 0.469238)"/>
</clipPath>
</defs>
</svg>
