<svg width="101" height="103" viewBox="0 0 101 103" fill="none" xmlns="http://www.w3.org/2000/svg">
<path d="M39.9902 46.5809L35.1807 11.2437L57.6251 3.21248L100.911 0L56.0219 24.0936L39.9902 46.5809Z" fill="#CC991B"/>
<path d="M43.1965 19.2749L39.9902 46.5809L100.911 0L43.1965 19.2749Z" fill="#E3AA1F"/>
<path d="M43.1965 19.2749L73.9955 36.2466C74.7143 36.6427 75.6157 36.4311 76.0843 35.7565L100.911 0L43.1965 19.2749Z" fill="#F5B71F"/>
<path d="M35.1807 11.2437L19.9381 3.02053C18.4716 2.22926 19.0327 0 20.6982 0H100.911L35.1807 11.2437Z" fill="#F5B71F"/>
<path d="M25.8991 63.5269C25.0608 63.5269 24.3556 62.8742 24.3007 62.0241C24.2436 61.1388 24.9137 60.3749 25.7973 60.3176C26.2237 60.2899 26.6548 60.2729 27.078 60.2664C27.0862 60.2664 27.0945 60.2662 27.1027 60.2662C27.9768 60.2662 28.692 60.9696 28.7052 61.8484C28.7185 62.7354 28.0117 63.4653 27.1263 63.4785C26.7556 63.4841 26.378 63.4992 26.0041 63.5235C25.969 63.5257 25.934 63.5269 25.8991 63.5269Z" fill="#F5B71F"/>
<path d="M34.0019 64.4674C33.838 64.4674 33.6713 64.4421 33.5068 64.3885C32.8454 64.1734 32.1485 63.9933 31.4352 63.8532C30.5665 63.6825 30.0002 62.8384 30.1705 61.9679C30.3409 61.0975 31.1834 60.5299 32.0523 60.7007C32.8911 60.8656 33.7136 61.0782 34.4967 61.3328C35.339 61.6066 35.7999 62.5126 35.5268 63.3564C35.3065 64.0357 34.6781 64.4674 34.0019 64.4674Z" fill="#F5B71F"/>
<path fill-rule="evenodd" clip-rule="evenodd" d="M29.2551 53.3411C29.4577 54.0055 30.097 54.4826 30.7912 54.4826C31.0585 54.4826 31.3296 54.4155 31.5789 54.2742C32.215 53.9138 32.8757 53.5716 33.543 53.2578C34.3444 52.8806 34.6889 51.924 34.3125 51.1209C33.936 50.3182 32.9813 49.9731 32.1797 50.3499C31.4399 50.6983 30.7066 51.0778 30.0004 51.4779C29.3603 51.8407 29.0401 52.636 29.2551 53.3411ZM25.1552 58.6138C23.7256 58.6138 23.0212 56.8038 24.062 55.8322C24.6594 55.2747 25.2867 54.7342 25.9265 54.2254C26.6201 53.6738 27.6283 53.7903 28.179 54.485C28.7295 55.1799 28.6133 56.1902 27.9199 56.7418C27.3459 57.1979 26.7834 57.6828 26.2476 58.183C25.9388 58.4713 25.5464 58.6138 25.1552 58.6138ZM19.3064 61.4695C18.6203 62.515 19.3886 63.9584 20.6445 63.9584C21.1661 63.9584 21.6775 63.7036 21.9855 63.2344C22.3861 62.624 22.8184 62.0203 23.2701 61.4398C23.8146 60.7403 23.6897 59.731 22.9915 59.1854C22.2935 58.6401 21.2859 58.7648 20.7415 59.4645C20.2371 60.1126 19.7541 60.7873 19.3064 61.4695ZM39.9529 68.0292C39.5325 68.0292 39.1129 67.8646 38.7982 67.5373C38.3455 67.0665 37.8271 66.6245 37.2576 66.2236C36.5331 65.7136 36.3584 64.7117 36.8674 63.9859C37.3764 63.2601 38.3764 63.085 39.1008 63.595C39.8377 64.1136 40.5128 64.6902 41.1072 65.3086C41.7214 65.9475 41.7026 66.9645 41.0649 67.5798C40.7541 67.88 40.3531 68.0292 39.9529 68.0292ZM16.0991 68.2442C15.8269 69.2497 16.6063 70.2713 17.6473 70.2713C18.3533 70.2713 19 69.8005 19.1938 69.0851C19.3052 68.6731 19.5186 67.9926 19.9022 67.0907C20.2493 66.2746 19.8701 65.3311 19.0557 64.9834C18.2409 64.6356 17.2993 65.0155 16.9524 65.8315C16.5919 66.6791 16.2969 67.5134 16.0991 68.2442ZM42.7635 74.2929C41.9346 74.2929 41.2326 73.6536 41.1669 72.8118C41.1138 72.1305 40.9914 71.478 40.8028 70.872C40.5395 70.0251 41.0112 69.1246 41.8565 68.8606C42.7016 68.5966 43.6005 69.0694 43.8641 69.9163C44.1238 70.7512 44.2917 71.641 44.3636 72.5612C44.4354 73.4832 43.6857 74.2929 42.7635 74.2929ZM15.7556 75.8909C15.8895 76.6736 16.5674 77.2261 17.3339 77.2261C18.3141 77.2261 19.0814 76.3162 18.9161 75.3482C18.7992 74.6664 18.7319 73.963 18.7157 73.2579C18.695 72.3711 17.9666 71.6725 17.0756 71.6892C16.1905 71.7099 15.4895 72.4455 15.5099 73.3324C15.53 74.1939 15.6127 75.0547 15.7556 75.8909ZM41.407 81.0905C40.2373 81.0905 39.4557 79.8212 39.9697 78.7749C40.2721 78.1589 40.524 77.5124 40.7182 76.8537C40.9691 76.003 41.8611 75.5171 42.71 75.7682C43.5591 76.0196 44.044 76.9131 43.7933 77.7638C43.5476 78.5966 43.2292 79.414 42.8466 80.193C42.5679 80.7608 41.9988 81.0905 41.407 81.0905ZM18.8137 82.976C19.1295 83.3852 19.6036 83.5997 20.083 83.5997C21.3942 83.5997 22.1471 82.0434 21.3501 81.0108C20.9359 80.4743 20.5619 79.8915 20.2383 79.2789C19.8241 78.4948 18.8537 78.1953 18.0714 78.6105C17.2886 79.0255 16.99 79.9975 17.4043 80.7815C17.8135 81.5561 18.2876 82.2944 18.8137 82.976ZM36.8379 86.2861C36.1031 86.2861 35.4446 85.7659 35.2757 85.0487C35.1215 84.3943 35.4033 83.6946 35.9668 83.3302C36.5335 82.9636 37.0706 82.5403 37.5628 82.0719C38.2051 81.4612 39.2197 81.4875 39.8293 82.1306C40.4389 82.7738 40.4126 83.7906 39.7708 84.4014C39.1345 85.0067 38.4397 85.5545 37.7061 86.0289C37.4371 86.203 37.1357 86.2861 36.8379 86.2861ZM25.1111 87.5982C25.2883 87.6612 25.469 87.6909 25.647 87.6909C26.44 87.6909 27.1299 87.0854 27.2361 86.2983C27.3367 85.5546 26.8884 84.821 26.1828 84.5704C25.5538 84.3472 24.942 84.058 24.3642 83.7115C23.6043 83.2553 22.62 83.5035 22.1653 84.2644C21.7104 85.0256 21.9575 86.0118 22.7172 86.4676C23.4769 86.9234 24.2823 87.3036 25.1111 87.5982ZM28.6339 86.8242C28.6764 87.6831 29.3848 88.3507 30.2337 88.3507C30.2605 88.3507 30.2876 88.3501 30.3144 88.3487C30.3665 88.3461 30.4188 88.3433 30.4689 88.3401C31.2916 88.2899 32.1032 88.1796 32.8811 88.0124C33.7468 87.8263 34.2981 86.9724 34.1125 86.105C33.9268 85.2378 33.0755 84.6853 32.2088 84.8712C31.5873 85.0047 30.9361 85.0931 30.2711 85.1338L30.1555 85.1402C29.2714 85.1842 28.59 85.9381 28.6339 86.8242Z" fill="#F5B71F"/>
<path d="M37.2301 51.7309C36.4307 51.7309 35.738 51.1151 35.6394 50.321C35.5444 49.5563 36.0281 48.8124 36.7634 48.5879C37.1596 48.4668 37.5668 48.3504 37.9734 48.2415C38.8289 48.0127 39.7074 48.5218 39.9359 49.379C40.1643 50.2361 39.6561 51.1163 38.8006 51.3452C38.4299 51.4444 38.059 51.5506 37.6982 51.6608C37.5425 51.7084 37.385 51.7309 37.2301 51.7309Z" fill="#F5B71F"/>
<path d="M4.72175 102.799C4.141 102.799 3.58049 102.482 3.29573 101.929C3.10255 101.554 2.91477 101.171 2.73742 100.79C2.36328 99.9859 2.71077 99.0304 3.51316 98.6555C4.31595 98.2807 5.26944 98.629 5.64358 99.4327C5.80269 99.7749 5.97143 100.119 6.14497 100.456C6.68464 101.504 5.90449 102.799 4.72175 102.799Z" fill="#F5B71F"/>
<path d="M2.61518 97.497C1.9166 97.497 1.27412 97.036 1.07393 96.3293C0.856496 95.5627 0.669726 94.7809 0.518627 94.0055C0.348891 93.1349 0.915814 92.2912 1.78473 92.1212C2.65426 91.9513 3.49592 92.5191 3.66546 93.3897C3.79932 94.0771 3.96525 94.7706 4.15803 95.4513C4.4444 96.4608 3.66426 97.497 2.61518 97.497Z" fill="#F5B71F"/>
<path fill-rule="evenodd" clip-rule="evenodd" d="M7.19885 69.5176C6.3127 70.5331 7.05156 72.1809 8.40524 72.1809C8.85173 72.1809 9.29581 71.995 9.61283 71.632C9.95291 71.2425 10.3064 70.8634 10.6635 70.5054C10.7976 70.3709 10.9328 70.2386 11.0691 70.1083C11.7098 69.4959 11.7334 68.4791 11.1222 67.8372C10.5112 67.1954 9.4962 67.1717 8.85554 67.784C8.70123 67.9316 8.54813 68.0814 8.39603 68.2338C7.98842 68.6424 7.58562 69.0743 7.19885 69.5176ZM4.64079 77.7789C3.46145 77.7789 2.68071 76.4905 3.21376 75.4426C3.57308 74.7366 3.96485 74.0373 4.37787 73.3645C4.84159 72.6088 5.82894 72.3729 6.58324 72.8377C7.33753 73.3023 7.5728 74.2917 7.10908 75.0472C6.74055 75.6478 6.39106 76.2718 6.07022 76.9018C5.78706 77.4586 5.22414 77.7789 4.64079 77.7789ZM0.758702 82.1404C0.52544 83.1336 1.30138 84.1147 2.3206 84.1147C3.04784 84.1147 3.70634 83.6155 3.88008 82.8756C4.0406 82.1912 4.23198 81.5029 4.44901 80.8295C4.72095 79.9852 4.25843 79.0799 3.41576 78.8074C2.5739 78.5354 1.66971 78.9984 1.39757 79.8427C1.15409 80.5986 0.939059 81.3716 0.758702 82.1404ZM0.0066131 89.2524C0.0254504 90.1274 0.739464 90.8239 1.60879 90.8239C1.62061 90.8239 1.63223 90.8239 1.64426 90.8235C2.52941 90.8044 3.2314 90.0698 3.21236 89.1829C3.20855 89.0038 3.20655 88.8252 3.20655 88.6469C3.20655 88.1224 3.22338 87.5906 3.25685 87.0661C3.31316 86.1807 2.64263 85.4173 1.75908 85.3607C0.873329 85.3067 0.113425 85.9761 0.0569127 86.8613C0.0192381 87.4538 0 88.0546 0 88.6469C0 88.8482 0.00220437 89.05 0.0066131 89.2524Z" fill="#F5B71F"/>
<path d="M13.4793 67.7387C12.9601 67.7387 12.4507 67.4863 12.142 67.0203C11.6525 66.281 11.8537 65.2843 12.5915 64.7938C12.9452 64.5587 13.3088 64.3292 13.6725 64.1116C14.4324 63.6564 15.4167 63.9052 15.871 64.6667C16.3251 65.4283 16.077 66.4145 15.3169 66.8695C14.9965 67.0612 14.6761 67.2636 14.3644 67.4708C14.0917 67.6519 13.7837 67.7387 13.4793 67.7387Z" fill="#F5B71F"/>
</svg>
